<svg width="24" height="24" viewBox="0 0 24 24" fill="none" xmlns="http://www.w3.org/2000/svg">
    <circle cx="12" cy="12" r="10" var:color.stroke="currentColor" stroke-width="2"/>
    <path d="M13.0151 14.3182H10.9771L10.6883 5.74988H13.3038L13.0151 14.3182ZM11.9961 15.6599C12.4094 15.6599 12.7405 15.7816 12.9896 16.025C13.2444 16.2684 13.3718 16.5798 13.3718 16.9591C13.3718 17.3328 13.2444 17.6413 12.9896 17.8847C12.7405 18.1282 12.4094 18.2499 11.9961 18.2499C11.5885 18.2499 11.2573 18.1282 11.0025 17.8847C10.7535 17.6413 10.6289 17.3328 10.6289 16.9591C10.6289 16.5855 10.7535 16.2769 11.0025 16.0335C11.2573 15.7844 11.5885 15.6599 11.9961 15.6599Z"
          var:color.fill="currentColor"/>
</svg>
